{"title":"Pink Floyd The Wall (1982)","uid":5389279,"size":4694711128,"categoryP":"video","categoryS":"hd___movies","magnet":"?xt=urn:btih:e327a11a5bdc5bae41f0774e4bc06e322a510f75&amp;dn=Pink+Floyd+The+Wall+%281982%29&amp;tr=udp%3A%2F%2Ftracker.openbittorrent.com%3A80&amp;tr=udp%3A%2F%2Fopen.demonii.com%3A1337&amp;tr=udp%3A%2F%2Ftracker.coppersurfer.tk%3A6969&amp;tr=udp%3A%2F%2Fexodus.desync.com%3A6969","seeders":10,"leechers":2,"uploader":"mfccorrea","files":5,"time":1266987988,"description":"Inspired by Pink Floyd's album of the same name, Pink Floyd: The Wall is a dark, expressionistic musical, told from the point of view of Pink, a depressed rock musician. The film is structured around Pink's reflections on his life, all of which center on the building of &quot;the wall.&quot; This wall is a metaphor for psychological isolation, a barrier Pink creates to distance himself from his pain. The foundations for this wall are lain in childhood, with the death of Pink's father leaving him to be raised by an overprotective mother and a repressive school system. He seeks freedom from this world through writing and music. However, even after he achieves success as a rock star, the wall continues to grow, with Pink feeling trapped by fame and wounded by his failed personal relationships. Lost in despair and self-loathing, he attempts to isolate himself from the world entirely. Director Alan Parker approaches this material in a highly stylized manner, mingling animation and dream-like sequences to suggest Pink's perception of the world. These techniques complement the almost constant music, which the film often uses in place of dialogue. Songs include &quot;Another Brick in the Wall&quot; and &quot;Comfortably Numb&quot;.\n\n\n   General\n      Format : Matroska\n      File size : 4.37 GiB\n      Duration : 1h 35mn\n      Overall bit rate : 6 581 Kbps\n      Encoded date : UTC 2009-03-23 22:36:07\n      Writing application : mkvmerge v2.4.1 ('Use Me') built on Dec  5 2008 18:30:05\n      Writing library : libebml v0.7.7 + libmatroska v0.8.1\n   Video #1\n      ID : 1\n      Format : AVC\n      Format/Info : Advanced Video Codec\n      Format profile : &lt;a class=&quot;__cf_email__&quot; href=&quot;/cdn-cgi/l/email-protection&quot; data-cfemail=&quot;763e1f111e363a425847&quot;&gt;[email&amp;#160;protected]&lt;/a&gt;&lt;script cf-hash='f9e31' type=&quot;text/javascript&quot;&gt;\n/* &lt;![CDATA[ */!function(){try{var t=&quot;currentScript&quot;in document?document.currentScript:function(){for(var t=document.getElementsByTagName(&quot;script&quot;),e=t.length;e--;)if(t[e].getAttribute(&quot;cf-hash&quot;))return t[e]}();if(t&amp;&amp;t.previousSibling){var e,r,n,i,c=t.previousSibling,a=c.getAttribute(&quot;data-cfemail&quot;);if(a){for(e=&quot;&quot;,r=parseInt(a.substr(0,2),16),n=2;a.length-n;n+=2)i=parseInt(a.substr(n,2),16)^r,e+=String.fromCharCode(i);e=document.createTextNode(e),c.parentNode.replaceChild(e,c)}}}catch(u){}}();/* ]]&gt; */&lt;/script&gt;\n      Format settings, CABAC : Yes\n      Format settings, ReFrames : 8 frames\n      Muxing mode : Container profile=&lt;a class=&quot;__cf_email__&quot; href=&quot;/cdn-cgi/l/email-protection&quot; data-cfemail=&quot;c491aaafaaabb3aa84f0eaf5&quot;&gt;[email&amp;#160;protected]&lt;/a&gt;&lt;script cf-hash='f9e31' type=&quot;text/javascript&quot;&gt;\n/* &lt;![CDATA[ */!function(){try{var t=&quot;currentScript&quot;in document?document.currentScript:function(){for(var t=document.getElementsByTagName(&quot;script&quot;),e=t.length;e--;)if(t[e].getAttribute(&quot;cf-hash&quot;))return t[e]}();if(t&amp;&amp;t.previousSibling){var e,r,n,i,c=t.previousSibling,a=c.getAttribute(&quot;data-cfemail&quot;);if(a){for(e=&quot;&quot;,r=parseInt(a.substr(0,2),16),n=2;a.length-n;n+=2)i=parseInt(a.substr(n,2),16)^r,e+=String.fromCharCode(i);e=document.createTextNode(e),c.parentNode.replaceChild(e,c)}}}catch(u){}}();/* ]]&gt; */&lt;/script&gt;\n      Codec ID : V_MPEG4/ISO/AVC\n      Duration : 1h 35mn\n      Bit rate : 6 066 Kbps\n      Nominal bit rate : 6 194 Kbps\n      Width : 1 280 pixels\n      Height : 536 pixels\n      Display aspect ratio : 2.35:1\n      Frame rate : 23.976 fps\n      Resolution : 24 bits\n      Colorimetry : 4:2:0\n      Scan type : Progressive\n      Bits/(Pixel*Frame) : 0.369\n      Stream size : 4.03 GiB (92%)\n      Writing library : x264 core 67 r1129M c109c8e\n   Audio #2\n      ID : 2\n      Format : AC-3\n      Format/Info : Audio Coding 3\n      Codec ID : A_AC3\n      Duration : 1h 35mn\n      Bit rate mode : Constant\n      Bit rate : 384 Kbps\n      Channel(s) : 6 channels\n      Channel positions : Front: L C R, Surround: L R, LFE\n      Sampling rate : 48.0 KHz\n      Stream size : 261 MiB (6%)\n      Language : English\n\nIMDB: tt0084503\n\nEnglish audio; English, Spanish, French and Portuguese subtitles\n\nHD-TV Rip\n\nPink Floyd The Wall (1982)","torrent":{"xt":"urn:btih:e327a11a5bdc5bae41f0774e4bc06e322a510f75","amp;dn":"Pink+Floyd+The+Wall+%281982%29","amp;tr":["udp%3A%2F%2Ftracker.openbittorrent.com%3A80","udp%3A%2F%2Fopen.demonii.com%3A1337","udp%3A%2F%2Ftracker.coppersurfer.tk%3A6969","udp%3A%2F%2Fexodus.desync.com%3A6969"],"infoHash":"e327a11a5bdc5bae41f0774e4bc06e322a510f75","infoHashBuffer":{"type":"Buffer","data":[227,39,161,26,91,220,91,174,65,240,119,78,75,192,110,50,42,81,15,117]},"announce":[],"urlList":[]}}